<?xml version="1.0" encoding="iso-8859-1"?>
<!-- Generator: Adobe Illustrator 19.0.0, SVG Export Plug-In . SVG Version: 6.00 Build 0)  -->
<svg version="1.1" id="Capa_1" xmlns="http://www.w3.org/2000/svg" xmlns:xlink="http://www.w3.org/1999/xlink" x="0px" y="0px"
	 viewBox="0 0 512.021 512.021" style="enable-background:new 0 0 512.021 512.021;" xml:space="preserve">
<g>
	<path style="fill:#F8B64C;" d="M311.733,299.465l-10.453,11.52c-9.6,10.443-23.253,16.523-37.44,16.523h-15.584
		c-14.069,0-27.829-6.08-37.44-16.523l-10.443-11.52c-7.264-7.893-13.867-16.352-19.744-25.227l-0.352,43.211l75.776,47.456
		L332,317.491v-44.085C325.963,282.59,319.2,291.326,311.733,299.465"/>
	<path style="fill:#F8B64C;" d="M186.571,297.929c0.853,1.184,0.736,1.184-0.117,0H186.571z"/>
	<path style="fill:#F8B64C;" d="M325.547,297.929c-0.853,1.184-0.96,1.184-0.107,0H325.547z"/>
</g>
<g style="opacity:0.1;">
	<g>
		<path style="fill:#40596B;" d="M302.005,310.259c-9.6,10.56-23.339,17.248-37.632,17.248h-16c-6.923,0-13.653-1.504-19.947-4.267
			l43.083,32.021l60.501-37.792v-44.043c-5.877,8.853-9.867,14.517-17.109,22.517L302.005,310.259z"/>
	</g>
</g>
<g>
	<path style="fill:#F8B64C;" d="M178.293,156.137c1.557,17.856-7.104,33.227-19.371,34.293
		c-12.256,1.088-23.467-12.544-25.024-30.421c-1.568-17.856,7.104-33.227,19.349-34.293
		C165.525,124.638,176.725,138.259,178.293,156.137"/>
	<path style="fill:#F8B64C;" d="M378.219,160.009c-1.579,17.877-12.768,31.499-25.045,30.421
		c-12.245-1.067-20.928-16.437-19.349-34.293c1.557-17.877,12.757-31.499,25.024-30.421
		C371.115,126.782,379.776,142.153,378.219,160.009"/>
</g>
<path style="fill:#FFD15C;" d="M363.253,193.971c-3.211,18.016-8.437,35.627-16.117,52.171c-8.843,19.317-20.8,37.44-35.403,53.333
	l-10.453,11.52c-9.6,10.453-23.253,16.523-37.44,16.523h-15.584c-14.069,0-27.829-6.059-37.44-16.523l-10.443-11.52
	c-14.613-15.893-26.56-34.016-35.403-53.333c-7.584-16.544-12.917-34.144-16.117-52.171c-2.987-17.376-6.72-69.984,1.28-98.336
	c13.013-45.877,53.76-78.837,105.92-80.128c52.171,1.291,92.917,34.251,105.92,80.128
	C369.963,123.987,366.229,176.595,363.253,193.971"/>
<path style="fill:#CDD6E0;" d="M512.021,422.131v88.224h-512v-88.224c0-20.373,12.48-38.709,31.456-46.059l148.8-58.56
	l75.744,47.392L332,317.47l148.661,58.603C499.552,383.529,512.021,401.758,512.021,422.131"/>
<path style="fill:#40596B;" d="M360.992,127.177c-6.869-9.963-16.576-21.547-16.619-21.771
	c-3.936-18.667-23.499-29.835-41.653-23.957c-8.821,2.859-23.221,5.163-46.656,5.163c-23.435,0-37.835-2.357-46.656-5.227
	c-18.133-5.899-37.717,5.312-41.653,23.979c-0.043,0.213-10.336,12.48-17.227,22.731c-3.499,5.184-4.971,48.309-4.971,48.309
	c-23.637-62.4,4.779-162.688,70.741-172.704c17.024-2.581,39.776-1.984,39.776-1.984s22.72-0.587,39.712,1.984
	c65.984,10.005,94.4,110.336,70.731,172.747C366.507,176.446,364.757,132.617,360.992,127.177"/>
<g>
	<polygon style="fill:#F2F2F2;" points="180.288,317.513 255.968,364.905 207.627,426.131 151.755,328.713 	"/>
	<polygon style="fill:#F2F2F2;" points="332,317.47 255.957,364.905 304.277,426.131 360.149,328.734 	"/>
</g>
<g>
	<polygon style="fill:#FF7058;" points="282.133,398.025 256,431.113 229.856,398.025 256,364.862 	"/>
	<polygon style="fill:#FF7058;" points="295.552,510.366 216.736,510.366 240.757,404.734 271.52,404.734 	"/>
</g>
<g>
	<path style="fill:#40596B;" d="M480.523,376.073c18.987,7.349,31.467,25.707,31.467,46.08v88.213H256.032l104.203-181.621
		L480.523,376.073z"/>
	<path style="fill:#40596B;" d="M31.467,376.073C12.48,383.422,0,401.779,0,422.153v88.213h255.957L151.755,328.745L31.467,376.073z
		"/>
	<rect x="226.965" y="145.609" style="fill:#40596B;" width="56.629" height="16.128"/>
	<path style="fill:#40596B;" d="M203.797,197.427h-9.813c-25.12,0-45.504-20.373-45.504-45.504v-6.315h100.811v6.315
		C249.301,177.054,228.917,197.427,203.797,197.427"/>
	<path style="fill:#40596B;" d="M318.112,197.427h-9.813c-25.12,0-45.504-20.373-45.504-45.504v-6.315h100.811v6.315
		C363.605,177.054,343.232,197.427,318.112,197.427"/>
</g>
<g>
</g>
<g>
</g>
<g>
</g>
<g>
</g>
<g>
</g>
<g>
</g>
<g>
</g>
<g>
</g>
<g>
</g>
<g>
</g>
<g>
</g>
<g>
</g>
<g>
</g>
<g>
</g>
<g>
</g>
</svg>
